# xmcd CD database file
#
# Track frame offsets:
#	150
#	19915
#	41520
#	65415
#	86360
#	105565
#	121915
#	146625
#	169545
#	183600
#	199420
#	214895
#	235660
#	257220
#	275725
#
# Disc length: 3960 seconds
#
# Revision: 1
# Processed by: cddbd v1.4PL0 Copyright (c) Steve Scherf et al.
# Submitted via: Feurio! 1.65 - http://www.feurio.com
#
DISCID=db0f760f
DTITLE=Various Artist - Organic Soul
DYEAR=1900
DGENRE=blues
TTITLE0=N'Dambi - What's Wrong With You
TTITLE1=N'Dambi - Soul From The Abyss
TTITLE2=N'Dambi - See Ya In My Dreams
TTITLE3=Ledisi - You Are My Friend
TTITLE4=Ledisi - Good Lovin'
TTITLE5=Ledisi - I've Got It
TTITLE6=Laurena - Keep Your Head Up
TTITLE7=Laurena - Just A Little
TTITLE8=Laurena - Groovin'
TTITLE9=Karen Bernod - The Pocket
TTITLE10=Karen Bernod - Do Ya Wanna Do
TTITLE11=Karen Bernod - Spirit
TTITLE12=Ian Martin - Treat You Right
TTITLE13=Ian Martin - Rise
TTITLE14=Ian Martin - Thank You
EXTD=
EXTT0=
EXTT1=
EXTT2=
EXTT3=
EXTT4=
EXTT5=
EXTT6=
EXTT7=
EXTT8=
EXTT9=
EXTT10=
EXTT11=
EXTT12=
EXTT13=
EXTT14=
PLAYORDER=
